/* XPM */
static char *ab5e001245b146538d3593ce7d1edfe867XgpPYXJ7jlp3Ru[] = {
/* columns rows colors chars-per-pixel */
"32 32 81 1 ",
"  c #403F34",
". c #44433D",
"X c #48473E",
"o c #484740",
"O c #4B4A43",
"+ c #4D4D4B",
"@ c #504E4B",
"# c #52514D",
"$ c #58564C",
"% c #555453",
"& c #585755",
"* c #5A5955",
"= c #575859",
"- c #5C5C5B",
"; c #615F5D",
": c #62615F",
"> c #5E5F61",
", c #605F60",
"< c #5F6062",
"1 c #636464",
"2 c #6A6966",
"3 c #666669",
"4 c #67686B",
"5 c #6B6B6D",
"6 c #706F6F",
"7 c #71716F",
"8 c #6D6E71",
"9 c #6F7074",
"0 c #737375",
"q c #787877",
"w c #747579",
"e c #77787C",
"r c #7B7B7D",
"t c #817F7E",
"y c #7F807F",
"u c #83827F",
"i c #7B7D81",
"p c #7D7E82",
"a c #7F7F82",
"s c #7D7F84",
"d c #807F82",
"f c #7E8182",
"g c #7D8084",
"h c #7F8185",
"j c #7F8186",
"k c #828181",
"l c #838281",
"z c #838384",
"x c #808186",
"c c #848385",
"v c #838586",
"b c #858484",
"n c #858584",
"m c gray53",
"M c #888785",
"N c #888787",
"B c #818388",
"V c #83868A",
"C c #86888D",
"Z c #8B8A88",
"A c #8A8A8B",
"S c #8B8B8B",
"D c #8B8C8B",
"F c #8B8D8E",
"G c #8D8D8C",
"H c #8C8F8F",
"J c #908D89",
"K c #90908D",
"L c #8B8F91",
"P c #8F8F90",
"I c #8F9193",
"U c #929191",
"Y c #939290",
"T c #949393",
"R c #909496",
"E c gray58",
"W c #959494",
"Q c #989796",
"! c #999896",
"~ c #939899",
"^ c #94989A",
/* pixels */
"rkrrfvHFn1+0rrnNGKDkSS2&6ugwwrrr",
"eeriihLRR0-Fqqrerrfnkd86^RIhfrrw",
"35880wewr3#22508999982349954<<<4",
"9eiissssi1=80eee0ee0054=559ww558",
"eiisiieia3=rfdrfarrrre3>94iifww9",
"sjjjssiee8-rkknxkrfrkr>3jiiiiiii",
"sjBBhhssh5-rkkkkbklkkk>1jjhhghhh",
"jjBjjhssN-;uxkhkkxkkkk->jjiiiiih",
"jjjsshsBs>&kklrkddddkk;3jjjiiiii",
"sjjjsBBCs-$kkkkkklllcd%1jjjiiiii",
"00ew089w8**rerrirq83-3.=i99999i9",
"==>=-->>=*$$##oooOXO.X  +++%%%==",
"%SPUEERPUPCCxai5+0qtuubuunKHjBr=",
"=08488wwewwwe838+e6560021119wge-",
"=8388899wwwe0w44%e:-:1:-*-290e0=",
"-w0w9wwiwewwewi4=e25900e0eerrrr=",
">issBBBhBsssiaw8=rrdkkkkkkllkxr-",
">ssBsBBBBBBBida8=tkklxkxklxknkf%",
">BBBBBBBBBBhBBV8#kkklkkkkkklkkk%",
">LBBBBBxBBBBBBB3%rkxlxkukxxlxkt%",
"+www08089888885%%280000q7q00002+",
"-,,-=+%>>3331;;-11:%@**;;:1111:*",
"rtNJ0$cUPSNNNNSHUUTv+E!NJY!QHSNt",
";3365%aN8858551310SI%t312654524;",
"rre98*ea8060e066550J=r00000qeqee",
"kdlr0%wee0qerqeqerrr=wrrraradaaa",
"kkkkw+qnkfdradrqddt3%wtrttdkkdta",
"kckxw%qnkkldkkrraud1=rkxdddkkkkk",
"kcllq%qclxlktkrrrkb1=rkkxkkdkklk",
"xlxlq&6SnbclkkrkrkN-&rkklkxkkxlx",
"rkdd6@;6etr66500qtq=%355080wrrrr",
"%%>,%+#%@+++@++@%%@OO++++#$+%%%%"
};
