/* XPM */
static char *e3066224f02b486d89a75ba9ca3f8685tTaUXArVpmFhi8GI[] = {
/* columns rows colors chars-per-pixel */
"32 32 52 1 ",
"  c #331516",
". c #381817",
"X c #341718",
"o c #3C1D1C",
"O c #401F1E",
"+ c #41221E",
"@ c #452421",
"# c #492722",
"$ c #4C2926",
"% c #4C2D29",
"& c #522E2B",
"* c #55312D",
"= c #5A332E",
"- c #5C3531",
"; c #5E3934",
": c #63332E",
"> c #613631",
", c #693630",
"< c #633B35",
"1 c #6C3D35",
"2 c #643F38",
"3 c #6A3F38",
"4 c #713F36",
"5 c #674237",
"6 c #67433A",
"7 c #6D433B",
"8 c #6E493F",
"9 c #724037",
"0 c #74453B",
"q c #79463C",
"w c #74493F",
"e c #7A4A3F",
"r c #6F4840",
"t c #754C42",
"y c #7B4D41",
"u c #765043",
"i c #7D5144",
"p c #7E5449",
"a c #814E41",
"s c #835445",
"d c #895647",
"f c #845648",
"g c #895748",
"h c #85594B",
"j c #8B5B4C",
"k c #915E4D",
"l c #8B5F51",
"z c #8F604F",
"x c #91604F",
"c c #8E6150",
"v c #926251",
"b c #996553",
/* pixels */
"88ttt8656t0rwtitiuitw75578u+-888",
"eyyyweeyyyeewqq0wyyyiiisiui*;7ww",
"sdgggddgggggddgssissgfspii8@=7wy",
"jjjxjjkjjkbbvxggsgsgjgfpssy*3sss",
"sgggkxkjkkkkkkkgjjxxxxjhgit%;qyi",
"isiyeyeaaaafdddddssdgggsfyr%>7ty",
"ewt00qqwrq4t4yttqeeiiiiiyfl;<3qt",
";;;;;;15=$<<<><3<<;;<<<522;%-;-;",
"sfghhfpfh$piitiypeeeeeeeysyyasss",
"ssfgffuruO3rttyyeeeeeeeeyyaiisss",
"ssisfhft<.<rigggzzeeseesfsayieys",
"jjhglhhit 3tifhgzzzzzzzzjjjjjjjj",
"vccjhfpyiXfllbvbzzzzzdsdshzhzzzz",
"jjgfhhy63 3usfggehseeeasfzhzgghh",
"fffspiituXryhlgfsdssssfeeeiieiff",
"yiiiyttrfXrttutywwwww0w9wwwwewue",
"==&&=&&=*O=&---&+=-------*=*=&&-",
"aaqaaaagggffyyij#79wqqq9qyeeyyya",
"4444114440443313o=5999400q0009qq",
"adaqaaaaaaeeyttd+<9eyadggggggdsa",
"daaaaaaaaaaaaaqro:7ysssfjjjjggsd",
"ggaaaaaagggkgdaf+5essfgjjjjljkjg",
"dddaaaaaaaayyy07+9wsssjjkggjggdg",
"qqe4qqqqqq4yeyti$:50tteyyeewqqq0",
"44,>,1,19900976w=770000wq0000704",
"9&%77ttyueiutiiu88uiywtt0ttyiiyr",
"ih*tuttyuuuuuui0wewww00700t00rti",
"87-tuuiphphpfggsisgjhgfgffittttt",
"tt%ripllccvvvvxzjjjxxvvvbvchhppi",
"87=ihlhlzzvccxxxxjxxzxvzjjhsippp",
"pp&0yyiipfhffisieeiissiippsspipp",
"83$8rr880755>;=:5595<=197773677r"
};
