/* XPM */
static char *e65f0b462e8c469ddd0adef5db602c0eBocWYTvDq6Xnijiu[] = {
/* columns rows colors chars-per-pixel */
"32 32 95 2 ",
"   c #312927",
".  c #332E2D",
"X  c #37312E",
"o  c #38322F",
"O  c #363232",
"+  c #3B3533",
"@  c #3E3835",
"#  c #3E3A39",
"$  c #413A37",
"%  c #433D3A",
"&  c #483F3D",
"*  c #46413D",
"=  c #49413E",
"-  c #453F42",
";  c #483F43",
":  c #464340",
">  c #4D4443",
",  c #4F4944",
"<  c #4E4749",
"1  c #4F4C4A",
"2  c #514645",
"3  c #534A46",
"4  c #524749",
"5  c #554C4A",
"6  c #594E4B",
"7  c #56514E",
"8  c #5B524D",
"9  c #564C51",
"0  c #5A4E53",
"q  c #575250",
"w  c #5D5452",
"e  c #5E535A",
"r  c #615652",
"t  c #655A54",
"y  c #645A55",
"u  c #675B56",
"i  c #675D56",
"p  c #665C57",
"a  c #695D56",
"s  c #63555B",
"d  c #68575E",
"f  c #625D59",
"g  c #675C59",
"h  c #695E59",
"j  c #6B5F58",
"k  c #6E5D5B",
"l  c #695E5F",
"z  c #715F5E",
"x  c #6A605A",
"c  c #6D605A",
"v  c #6F625B",
"b  c #68605D",
"n  c #6A615D",
"m  c #6C635D",
"M  c #6E655F",
"N  c #71655F",
"B  c #645761",
"V  c #665E61",
"C  c #6A5C63",
"Z  c #6D5F68",
"A  c #6A6662",
"S  c #6E6561",
"D  c #6D6562",
"F  c #6F6763",
"G  c #6F6864",
"H  c #6F6A67",
"J  c #6E636B",
"K  c #6F6B68",
"L  c #726661",
"P  c #706764",
"I  c #716864",
"U  c #736A65",
"Y  c #736B66",
"T  c #726B67",
"R  c #736B67",
"E  c #70676D",
"W  c #716C69",
"Q  c #726C68",
"!  c #716E6B",
"~  c #746E6A",
"^  c #736E6C",
"/  c #786E6A",
"(  c #796F6A",
")  c #786A6D",
"_  c #76706C",
"`  c #77716E",
"'  c #7A716D",
"]  c #776D75",
"[  c #7A6C74",
"{  c #7C6D7B",
"}  c #757271",
"|  c #797472",
" . c #807480",
".. c #827782",
"X. c #887A86",
/* pixels */
"7 1 * , = 3 , * + o O 3 8 r y y y y w , + % a T T ~ Q A f w 7 7 ",
"} ` ` T F Q ~ ~ u + 2 / N T F T L P F g o = L N N 7 3 r n F Q } ",
"y 7 w 3 8 x x 8 2 o 2 N h h 8 8 a k t 2 o = N N L 3 2 k t y F M ",
"f w 8 6 8 8 5 5 3 O 2 u r w r r r 5 6 , o = 8 r 3 3 5 6 6 3 7 y ",
"x r 8 a i y 6 = : $ ; 5 6 8 v v a r r 5 o $ 6 3 , 5 2 6 3 3 7 n ",
"5 8 8 5 3 6 6 3 : # % ; 2 7 r h a r r 5 o * 6 3 8 g y w 5 3 6 g ",
", 5 8 8 8 8 2 = : $ $ - : 2 4 6 7 8 3 % @ + = = 3 6 6 6 5 1 5 5 ",
"X + + + + # @ @ + O O O X @ + + X . . . + $ $ % @ & < * + @ @ # ",
"* , , , > > d C 5 < < 9 4 w w 7 z ) ) z s 0 e s e e ..J O % > % ",
"Q K F F w 2 2 > = 4 1 > < 4 - - ; 2 2 ; ; 4 4 0 e e ..] + Q Q K ",
"F F w 5 ; 4 5 4 5 s w < < ; % ; 6 2 2 2 6 0 0 B e B ] J $ T T m ",
"y i 8 5 2 ; 6 5 9 0 9 4 4 4 < 4 6 r s w e C d C Z { { ] $ n 8 w ",
"w 7 8 5 , , 4 4 e 4 - ; 0 s s 4 9 0 0 6 w d s d Z [ X.J % i 6 w ",
"8 7 8 5 3 > ; 2 0 4 < > < 4 0 4 4 ; ; ; 2 ; & 6 s s ] V @ w 3 7 ",
"7 7 5 = % > * : > > 4 9 < < 3 2 6 ; 2 6 4 4 2 6 4 < J A @ 3 = 3 ",
"% * @ @ $ & % : # % - # X . . . . X + $ + $ + $ $ $ : 3 $ + % % ",
"7 7 x x x x y 3 + @ 7 y x x x x d k r & $ @ @ o o X @ % $ % $ = ",
"n F ' ' Q Q M N * 5 ' ` _ Y Y / T T / 2 % v F _ Q Q / Q Q L = 6 ",
"w x x N x 8 6 6 * 3 L N Y Y v 5 r r r $ * I x v M F M F r 6 = , ",
"8 w w x x x 8 6 $ , x N x 7 8 v N a r $ % x a k v x a i w 6 & , ",
", 8 i F v x r 5 @ 3 x 5 8 r t a u t 8 $ & r r t t i i 8 6 6 * 3 ",
"w 7 5 5 3 8 3 = * 3 5 5 5 5 r t t 8 8 + = r r r r r t r 6 6 * w ",
"7 7 = 5 3 = 3 = * = 8 = 3 5 5 8 8 3 = $ = 6 r r w 8 8 8 6 6 * 5 ",
"# * @ @ + + X @ $ $ @ * @ $ $ % $ $ + $ $ = $ $ * = = * $ @ # # ",
"# @ $ $ $ 5 5 7 8 8 r r = * @ w g A F T ~ T L = + 3 7 8 2 , 3 * ",
"| F @ * ' T Y M t a t t 5 * % L g w 6 6 8 8 8 $ * / T N a M _ ` ",
"n x * , T v a 8 6 6 3 3 3 % @ x w 7 2 2 8 6 3 $ * N N N x v v g ",
"w 8 * = y 6 5 5 8 = 6 6 3 $ = x 8 6 3 3 8 6 6 $ $ r v N i w y f ",
"8 8 * * 8 2 3 8 3 6 3 3 6 % = t 8 6 6 3 3 6 3 $ + 8 3 5 8 8 8 7 ",
"5 6 * + 2 3 3 5 5 6 6 3 5 $ $ 8 6 = 2 3 8 8 6 $ X 5 * 3 8 6 5 3 ",
"3 8 $ o = = = = = = $ $ o + + = = $ = = = 2 = $ X $ @ % % 5 7 5 ",
"@ * $ o o o + + o o o o + + + + + o X X + + o X       X + * : * "
};
