/* XPM */
static char *ec2f3c1327b04e2acdf91b389ade1802whYDkyKKxf7EuWhZ[] = {
/* columns rows colors chars-per-pixel */
"32 32 108 2 ",
"   c #403D1E",
".  c #474424",
"X  c #4B4527",
"o  c #4C452A",
"O  c #4E482A",
"+  c #50472E",
"@  c #534A2E",
"#  c #554C32",
"$  c #594E34",
"%  c #5A4E39",
"&  c #5D5236",
"*  c #5D523A",
"=  c #635737",
"-  c #625A37",
";  c #62553B",
":  c #655A3D",
">  c #695D3F",
",  c #6C603F",
"<  c #635641",
"1  c #665942",
"2  c #6B5D44",
"3  c #6D5E4C",
"4  c #6F5F50",
"5  c #6E6144",
"6  c #6F614B",
"7  c #716346",
"8  c #74644C",
"9  c #77694D",
"0  c #79694E",
"q  c #6F6050",
"w  c #756653",
"e  c #776857",
"r  c #7B6B54",
"t  c #7C6C5B",
"y  c #7F705F",
"u  c #7E6D60",
"i  c #7F7060",
"p  c #806F55",
"a  c #816E5A",
"s  c #837154",
"d  c #85735C",
"f  c #89775E",
"g  c #8C795E",
"h  c #806F63",
"j  c #847464",
"k  c #897660",
"l  c #887760",
"z  c #8A7760",
"x  c #897664",
"c  c #8A7860",
"v  c #8F7961",
"b  c #8E7B61",
"n  c #8F7C60",
"m  c #8C7B64",
"M  c #8F7C64",
"N  c #867568",
"B  c #897769",
"V  c #8D7A6C",
"C  c #907961",
"Z  c #927E63",
"A  c #947E63",
"S  c #907B64",
"D  c #937D65",
"F  c #937F65",
"G  c #927D66",
"H  c #947F65",
"J  c #967F65",
"K  c #957E66",
"L  c #917D6C",
"P  c #927E71",
"I  c #938063",
"U  c #968063",
"Y  c #938067",
"T  c #948064",
"R  c #958164",
"E  c #958266",
"W  c #9A8266",
"Q  c #978269",
"!  c #96806B",
"~  c #97836A",
"^  c #998368",
"/  c #9A8568",
"(  c #9B856A",
")  c #9B866B",
"_  c #9D866B",
"`  c #9D876B",
"'  c #9B866D",
"]  c #9B876F",
"[  c #9F886C",
"{  c #958273",
"}  c #9B8673",
"|  c #9C8870",
" . c #9F8A71",
".. c #9A8678",
"X. c #9F8A7A",
"o. c #A48D6D",
"O. c #A38D74",
"+. c #A38D75",
"@. c #A38E75",
"#. c #A79075",
"$. c #AD9577",
"%. c #A79079",
"&. c #A7917A",
"*. c #AB947B",
"=. c #AB9687",
"-. c #AF9886",
";. c #B39B84",
":. c #B69E8A",
/* pixels */
"s 0 & * t d d s r s s d f g d t 9 $ - r s s r 0 s s g g f d s s ",
"T $.1 d #.*. .] ^ T T T T _ | #.#.* r T Z s s p g n Y _ [ / I g ",
"r g 2 m ) 9 5 5 8 r 0 t r r r n ~ 1 8 d r w w 8 0 r r r r t r 0 ",
"d b 8 l Y y d d d d f l d d f f M 2 8 d C T C H n n A n f g f d ",
"b b 2 3 T S n f f g C b f l C l S 1 w Z Y W W H M H S H H S M f ",
"S Z 2 < Y T Y M Z A T H H H H ^ T * r / I I T H T T T H T I I I ",
") W 2 < H ^ Z C g U W J J H K ^ ) 1 r T W H ^ ^ K ^ H ^ H W T ) ",
"S W 2 < _ T C n A H H H H W H J I : 0 T H W H H W H H ^ H I W I ",
"T S 1 ; H ^ H W T H W ^ H o.( _ g : r _ W H ^ H ^ H ^ H H H H H ",
"8 8 % * 0 s t 0 8 7 6 6 9 p 0 8 2 $ 2 b K C l d d d d p r w w w ",
"@ $ $ # $ % * $ # + # # # # $ % * @ $ 1 1 % & & $ # $ + $ $ # # ",
"7 ;.:.*.;.:.;.;.-.*.%.+.3 2 &.:.:.;.O.O.O.%.+.O.+.+.+.X.=.=. .0 ",
"> s r s s r r r r 9 9 r 0 7 +...L x d t t r r e t t t t j P ..L ",
"5 r t d d l l l d d r r ; 2 V V B B x x j h e w w e w t u h h t ",
"6 y d f l b c c C C l l 2 2 B L L L L L V V N u u u N N h u t 4 ",
"1 l g M c b S T H H H K 7 6 B m B V V V V V B N B N V V B j N u ",
"* S H H H H H ^ H H T Q 5 w V B V { { { ..{ { P P L V P P P ..h ",
"* S ^ ^ H H W H ^ W ^ T 5 6 ! V { { { { { { { { P P P P P P { h ",
"* Y H H H ^ H H H H I ^ 5 : { { V { { P { P P { V P V V L P P a ",
"% ^ ^ H ^ H Z Y S T I ) 5 : x { { V { P P { P L L P L V L { P x ",
"o a A C H W H W T H W _ , - x ..{ { P { { ^ L S K S S S L P L l ",
"  3 * 2 8 9 a a d d p d : = 6 r e w r t t r a a h e r e r r a 2 ",
". @ @ o . o o X @ & - : 5 5 7 8 0 7 9 7 8 7 ; = * ; = * * $ @ X ",
"o.o.o.o.] ^ : 9 H L Q _  . .#.%.#.*.%.+.%.+.8 % A O.+.#.+.+.o.o.",
"8 9 8 8 9 d ; 6 e t x j j j j j h t e w 4 e 8 % d C d a 9 > ; 2 ",
"8 w 9 2 2 a 6 3 e j x x j j B B j u t h r t 8 % d f f d r 8 2 5 ",
"b b d d d c 9 8 B B x x B j V B x B B B N B e % d H H H S C C C ",
"H H H H S S 8 3 x V P { { { { { { { { P L V w % z J H J H H W H ",
"H J H W T W 2 8 V { { { ..P { { { { { { ..P a % C H J W H H ^ J ",
"W ^ H H H ^ 1 3 } { { { P ..{ { { { { { P P a $ C H W H ) H W H ",
"^ K H H Q H 2 2 L { ..P ..P ..{ { { { { P O.r @ g H J J H J J ^ ",
"r r 0 w 9 2 * # < 3 4 3 3 4 4 4 e 4 r e r r ; o 2 0 8 9 r 8 8 0 "
};
